<svg width="1440" height="1024" viewBox="0 0 1440 1024" fill="none" xmlns="http://www.w3.org/2000/svg">
<g clip-path="url(#clip0_213_5672)">
<path d="M-3 849.237L45.1 835.287C93.2 821.499 189.4 793.601 285.6 781.576C381.8 769.551 478 773.399 574.2 785.584C670.4 797.93 766.6 818.773 862.8 832.402C959 846.03 1055.2 852.443 1151.4 829.997C1247.6 807.55 1343.8 756.243 1391.9 730.59L1440 704.937V1025.6H1391.9C1343.8 1025.6 1247.6 1025.6 1151.4 1025.6C1055.2 1025.6 959 1025.6 862.8 1025.6C766.6 1025.6 670.4 1025.6 574.2 1025.6C478 1025.6 381.8 1025.6 285.6 1025.6C189.4 1025.6 93.2 1025.6 45.1 1025.6H-3V849.237Z" fill="url(#paint0_linear_213_5672)"/>
<path d="M-3 879.7L45.1 868.129C93.2 856.691 189.4 833.549 285.6 823.574C381.8 813.599 478 816.791 574.2 826.899C670.4 837.14 766.6 854.43 862.8 865.735C959 877.04 1055.2 882.36 1151.4 863.74C1247.6 845.12 1343.8 802.56 1391.9 781.28L1440 760V1026H1391.9C1343.8 1026 1247.6 1026 1151.4 1026C1055.2 1026 959 1026 862.8 1026C766.6 1026 670.4 1026 574.2 1026C478 1026 381.8 1026 285.6 1026C189.4 1026 93.2 1026 45.1 1026H-3V879.7Z" fill="url(#paint1_linear_213_5672)"/>
</g>
<defs>
<linearGradient id="paint0_linear_213_5672" x1="718.5" y1="704.937" x2="718.5" y2="1025.6" gradientUnits="userSpaceOnUse">
<stop stop-color="#EF23C2"/>
<stop offset="1" stop-color="#1B3F75" stop-opacity="0"/>
</linearGradient>
<linearGradient id="paint1_linear_213_5672" x1="718.5" y1="760" x2="718.5" y2="1026" gradientUnits="userSpaceOnUse">
<stop stop-opacity="0"/>
<stop offset="1"/>
</linearGradient>
<clipPath id="clip0_213_5672">
<rect width="1443" height="1024" fill="white" transform="translate(-3)"/>
</clipPath>
</defs>
</svg>
